<?xml version="1.0" encoding="UTF-8"?>
<svg id="Capa_3" data-name="Capa 3" xmlns="http://www.w3.org/2000/svg" viewBox="0 0 316.86 63.1">
  <g id="Capa_1" data-name="Capa 1">
    <g id="Ilustración_5" data-name="Ilustración 5">
      <g>
        <path d="M19.18,4.21c1.18-3.11,3.37-4.21,6.73-4.21h3.28c3.11,0,5.89.76,7.4,5.05l16.66,46.36c.5,1.35,1.35,3.79,1.35,5.3,0,3.37-2.94,6.06-6.48,6.06-3.03,0-5.22-1.09-6.23-3.79l-3.53-10.1h-22.21l-3.62,10.1c-.93,2.69-2.86,3.79-6.14,3.79-3.79,0-6.39-2.36-6.39-6.06,0-1.51.84-3.95,1.35-5.3L19.18,4.21ZM27.51,14.98h-.17l-8.16,22.31h16.15l-7.82-22.31Z"/>
        <path d="M95.74,42.74c0,12.7-7.07,20.36-20.7,20.36-16.58,0-19.69-11.02-19.69-17,0-5.13,2.36-8.41,6.56-8.41,4.96,0,6.23,3.87,6.23,7.99s1.85,6.82,6.73,6.82c4.54,0,7.07-3.37,7.07-9.93V6.9c0-4.12,2.69-6.9,6.9-6.9s6.9,2.78,6.9,6.9v35.84Z"/>
        <path d="M98.43,6.9c0-4.12,2.69-6.9,6.9-6.9s6.9,2.78,6.9,6.9v33.15c0,8.25,4.63,11.95,12.54,11.95s12.54-3.7,12.54-11.95V6.9c0-4.12,2.69-6.9,6.9-6.9s6.9,2.78,6.9,6.9v32.06c0,16.66-10.26,24.15-26.33,24.15s-26.33-7.49-26.33-24.15V6.9Z"/>
        <path d="M154.66,8.22c0-6.25,3.25-8.22,8.22-8.22h21.49c11.82,0,21.32,5.82,21.32,19.52,0,11.22-7.79,19.52-21.41,19.52h-15.58v16.7c0,4.2-2.74,7.02-7.02,7.02s-7.02-2.83-7.02-7.02V8.22ZM168.71,28.26h13.1c5.65,0,9.85-3.42,9.85-8.73,0-6.17-4.37-8.73-11.3-8.73h-11.65v17.47Z"/>
        <path d="M215.84,4.21c1.18-3.11,3.37-4.21,6.73-4.21h3.28c3.11,0,5.89.76,7.4,5.05l16.66,46.36c.5,1.35,1.35,3.79,1.35,5.3,0,3.37-2.94,6.06-6.48,6.06-3.03,0-5.22-1.09-6.23-3.79l-3.53-10.1h-22.21l-3.62,10.1c-.93,2.69-2.86,3.79-6.14,3.79-3.79,0-6.39-2.36-6.39-6.06,0-1.51.84-3.95,1.35-5.3l17.84-47.2ZM224.17,14.98h-.17l-8.16,22.31h16.15l-7.82-22.31Z"/>
        <path d="M254.43,6.81c0-5.55,3.79-6.81,7.49-6.81h4.04c4.29,0,6.31,1.68,7.74,6.31l12.03,27.87h.17l11.86-27.87c1.43-4.63,3.45-6.31,7.74-6.31h3.87c3.7,0,7.49,1.26,7.49,2.81v49.22c0,7.45-2.68,10.73-7.14,10.73s-6.14-3.28-6.14-6.73v-31.53h-.17l-11.87,34.22c-.93,2.86-3.03,4.04-5.89,4.04s-4.96-1.18-5.89-4.04l-11.87-34.22h-.17v31.53c0,3.45-1.68,6.73-6.14,6.73s-7.14-3.28-7.14-6.73V6.81Z"/>
      </g>
    </g>
  </g>
</svg>